<svg width="64" height="64" fill="none" xmlns="http://www.w3.org/2000/svg"><path d="M27.998 18c-1.101 0-2 .898-2 2v12h-2a1 1 0 100 2h2v2h-2a1 1 0 100 2h2v5a1 1 0 102 0v-9h6c3.309 0 6-2.691 6-6v-4c0-3.309-2.691-6-6-6h-6zm0 2h6c2.207 0 4 1.793 4 4v4c0 2.207-1.793 4-4 4h-6V20zm2 16a1 1 0 100 2h6a1 1 0 100-2h-6zm-8.625 12.395a.992.992 0 00-.988.492l-1 1.734a.997.997 0 00.363 1.363.995.995 0 001.363-.363l1-1.734a.998.998 0 00-.738-1.492zm19.25 0a1.002 1.002 0 00-.738 1.496l1 1.73a.995.995 0 001.363.363.993.993 0 00.364-1.363l-1-1.73a1.002 1.002 0 00-.989-.496zm-4.437 1.949a.945.945 0 00-.403.027c-.53.14-.847.691-.707 1.223l.52 1.933a1.004 1.004 0 001.227.707 1 1 0 00.706-1.222l-.515-1.934a1.007 1.007 0 00-.828-.734zm-10.371 0a1.007 1.007 0 00-.832.734l-.516 1.934a1 1 0 001.934.515l.52-1.933a1.001 1.001 0 00-1.106-1.25zm5.183.656a1 1 0 00-1 1v2a1 1 0 102 0v-2a1 1 0 00-1-1z" fill="#BD9457"/></svg>