<svg width="15" height="15" fill="none" xmlns="http://www.w3.org/2000/svg"><path fill-rule="evenodd" clip-rule="evenodd" d="M15 7.307c0 4.035-3.296 7.307-7.364 7.307a7.376 7.376 0 01-3.56-.91L0 15l1.33-3.92A7.23 7.23 0 01.271 7.307C.272 3.27 3.57 0 7.636 0 11.704 0 15 3.271 15 7.307zM7.636 1.164c-3.414 0-6.19 2.756-6.19 6.143a6.07 6.07 0 001.179 3.601L1.85 13.19l2.38-.756a6.186 6.186 0 003.405 1.016c3.414 0 6.192-2.755 6.192-6.143 0-3.387-2.778-6.143-6.192-6.143zm3.47 7.664c.127.06.212.102.249.162.045.074.045.433-.105.851-.151.418-.888.822-1.219.852a.936.936 0 00-.152.028c-.233.056-.493.118-2.014-.476C6.169 9.582 5.05 7.937 4.82 7.597l-.039-.056c-.091-.121-.737-.972-.737-1.852 0-.825.409-1.257.597-1.456l.035-.038a.666.666 0 01.481-.224c.063 0 .125.004.185.008a2.576 2.576 0 00.201.005c.102-.006.234-.015.366.3l.193.463c.157.38.334.807.364.867.045.09.076.195.015.314l-.024.05a1.01 1.01 0 01-.156.249l-.092.11c-.062.075-.125.15-.179.204-.09.089-.184.186-.08.365a5.4 5.4 0 001.005 1.24c.577.51 1.079.726 1.332.836.05.021.09.038.12.053.18.09.285.075.39-.045.106-.12.452-.523.572-.702.12-.18.241-.15.406-.09.165.06 1.053.493 1.234.583l.098.047z" fill="#fff"/></svg>