<svg width="20" height="20" fill="none" xmlns="http://www.w3.org/2000/svg"><path d="M5.081.926C4.713.041 4.326.02 3.976.01 3.693 0 3.363 0 3.032 0c-.33 0-.86.132-1.313.662C1.266 1.19 0 2.473 0 5.089c0 2.606 1.766 5.13 2.012 5.486.245.357 3.41 5.883 8.405 8.01 4.156 1.772 5.006 1.415 5.903 1.324.907-.092 2.91-1.283 3.325-2.524.406-1.242.406-2.3.283-2.525-.122-.224-.453-.356-.944-.62-.491-.265-2.91-1.548-3.362-1.73-.454-.184-.784-.265-1.105.264-.331.529-1.275 1.72-1.559 2.076-.283.356-.576.397-1.067.133-.491-.265-2.078-.825-3.957-2.637-1.464-1.404-2.456-3.145-2.74-3.674-.283-.53-.028-.815.218-1.079.217-.234.49-.62.737-.926.245-.306.33-.53.49-.886.161-.356.086-.661-.037-.926S5.516 1.975 5.082.926z" fill="#fff"/></svg>