<svg width="49" height="49" fill="none" xmlns="http://www.w3.org/2000/svg"><path d="M24.5 44.79c-11.178 0-20.29-9.112-20.29-20.29 0-11.178 9.112-20.29 20.29-20.29 11.178 0 20.29 9.112 20.29 20.29 0 11.178-9.112 20.29-20.29 20.29zm0-38.282c-9.915 0-17.992 8.077-17.992 17.992 0 9.915 8.077 17.992 17.992 17.992 9.915 0 17.992-8.077 17.992-17.992 0-9.915-8.077-17.992-17.992-17.992z" fill="#fff"/><path d="M24.5 31.39c-.65 0-1.148-.497-1.148-1.148V18.758c0-.651.497-1.149 1.148-1.149.65 0 1.148.498 1.148 1.149v11.484c0 .651-.497 1.149-1.148 1.149z" fill="#fff"/><path d="M30.242 25.648H18.758a1.128 1.128 0 01-1.149-1.148c0-.65.498-1.148 1.149-1.148h11.484c.651 0 1.149.497 1.149 1.148 0 .65-.498 1.148-1.149 1.148z" fill="#fff"/></svg>