<svg width="14" height="10" fill="none" xmlns="http://www.w3.org/2000/svg"><path d="M4.219 5.653h7.218l-2.32 2.665c-.281.323-.281.835 0 1.13.281.324.727.324.985 0l3.515-4.037a.886.886 0 00.211-.566.834.834 0 00-.21-.565L10.101.242A.673.673 0 009.609 0a.672.672 0 00-.492.242c-.281.323-.281.835 0 1.13l2.32 2.666H4.22c-.399 0-.703.35-.703.807 0 .458.304.808.703.808zM.703 4.038a.66.66 0 00-.497.236.872.872 0 00-.206.571c0 .215.074.42.206.572a.66.66 0 00.497.236.66.66 0 00.497-.236.872.872 0 00.206-.572.872.872 0 00-.206-.57.66.66 0 00-.497-.237z" fill="#000"/></svg>